G04 start of page 8 for group -4079 idx -4079 *
G04 Title: (unknown), topsilk *
G04 Creator: pcb 4.0.2 *
G04 CreationDate: Thu Oct 28 20:11:09 2021 UTC *
G04 For: ndholmes *
G04 Format: Gerber/RS-274X *
G04 PCB-Dimensions (mil): 2100.00 2700.00 *
G04 PCB-Coordinate-Origin: lower left *
%MOIN*%
%FSLAX25Y25*%
%LNTOPSILK*%
%ADD43C,0.0066*%
%ADD42C,0.0060*%
%ADD41C,0.0100*%
G54D41*X500Y269500D02*X209500D01*
Y10500D01*
X159500D02*X149500Y500D01*
X209500Y10500D02*X159500D01*
X153500Y32500D02*X155500D01*
X154500Y33500D02*Y31500D01*
X149500Y500D02*X20500D01*
X500Y10500D02*X10500D01*
X20500Y500D02*X10500Y10500D01*
X500D02*Y269500D01*
X131500Y254500D02*X142500D01*
X131500D02*X135000Y258000D01*
X131500Y254500D02*X135000Y251000D01*
G54D42*X18000Y22500D02*Y19000D01*
Y22500D02*X18500Y23000D01*
X20000D01*
X20500Y22500D01*
Y19000D01*
X18000Y21000D02*X20500D01*
X21700Y23000D02*X23700D01*
X21700D02*Y21000D01*
X22200Y21500D01*
X23200D01*
X23700Y21000D01*
Y19500D01*
X23200Y19000D02*X23700Y19500D01*
X22200Y19000D02*X23200D01*
X21700Y19500D02*X22200Y19000D01*
X24900Y19500D02*X27900Y22500D01*
X31100Y23000D02*X31600Y22500D01*
X29600Y23000D02*X31100D01*
X29100Y22500D02*X29600Y23000D01*
X29100Y22500D02*Y21500D01*
X29600Y21000D01*
X31100D01*
X31600Y20500D01*
Y19500D01*
X31100Y19000D02*X31600Y19500D01*
X29600Y19000D02*X31100D01*
X29100Y19500D02*X29600Y19000D01*
X33300D02*X34800D01*
X32800Y19500D02*X33300Y19000D01*
X32800Y22500D02*Y19500D01*
Y22500D02*X33300Y23000D01*
X34800D01*
X36000D02*Y19000D01*
X38000D01*
X18000Y31500D02*Y28000D01*
Y31500D02*X18500Y32000D01*
X20000D01*
X20500Y31500D01*
Y28000D01*
X18000Y30000D02*X20500D01*
X21700D02*X23700Y32000D01*
X21700Y30000D02*X24200D01*
X23700Y32000D02*Y28000D01*
X25400Y28500D02*X28400Y31500D01*
X31600Y32000D02*X32100Y31500D01*
X30100Y32000D02*X31600D01*
X29600Y31500D02*X30100Y32000D01*
X29600Y31500D02*Y30500D01*
X30100Y30000D01*
X31600D01*
X32100Y29500D01*
Y28500D01*
X31600Y28000D02*X32100Y28500D01*
X30100Y28000D02*X31600D01*
X29600Y28500D02*X30100Y28000D01*
X33800Y32000D02*Y28000D01*
X35300Y32000D02*X35800Y31500D01*
Y28500D01*
X35300Y28000D02*X35800Y28500D01*
X33300Y28000D02*X35300D01*
X33300Y32000D02*X35300D01*
X37000Y31500D02*Y28000D01*
Y31500D02*X37500Y32000D01*
X39000D01*
X39500Y31500D01*
Y28000D01*
X37000Y30000D02*X39500D01*
X18000Y41500D02*Y38000D01*
Y41500D02*X18500Y42000D01*
X20000D01*
X20500Y41500D01*
Y38000D01*
X18000Y40000D02*X20500D01*
X21700Y41500D02*X22200Y42000D01*
X23200D01*
X23700Y41500D01*
Y38500D01*
X23200Y38000D02*X23700Y38500D01*
X22200Y38000D02*X23200D01*
X21700Y38500D02*X22200Y38000D01*
Y40000D02*X23700D01*
X18000Y51500D02*Y48000D01*
Y51500D02*X18500Y52000D01*
X20000D01*
X20500Y51500D01*
Y48000D01*
X18000Y50000D02*X20500D01*
X21700Y51500D02*X22200Y52000D01*
X23700D01*
X24200Y51500D01*
Y50500D01*
X21700Y48000D02*X24200Y50500D01*
X21700Y48000D02*X24200D01*
X18000Y61500D02*Y58000D01*
Y61500D02*X18500Y62000D01*
X20000D01*
X20500Y61500D01*
Y58000D01*
X18000Y60000D02*X20500D01*
X22200Y58000D02*X23200D01*
X22700Y62000D02*Y58000D01*
X21700Y61000D02*X22700Y62000D01*
X18000Y71500D02*Y68000D01*
Y71500D02*X18500Y72000D01*
X20000D01*
X20500Y71500D01*
Y68000D01*
X18000Y70000D02*X20500D01*
X21700Y68500D02*X22200Y68000D01*
X21700Y71500D02*Y68500D01*
Y71500D02*X22200Y72000D01*
X23200D01*
X23700Y71500D01*
Y68500D01*
X23200Y68000D02*X23700Y68500D01*
X22200Y68000D02*X23200D01*
X21700Y69000D02*X23700Y71000D01*
X18000Y122000D02*X20000D01*
X18000D02*Y120000D01*
X18500Y120500D01*
X19500D01*
X20000Y120000D01*
Y118500D01*
X19500Y118000D02*X20000Y118500D01*
X18500Y118000D02*X19500D01*
X18000Y118500D02*X18500Y118000D01*
X21200Y122000D02*Y119000D01*
X22200Y118000D01*
X23200Y119000D01*
Y122000D02*Y119000D01*
X18000Y131500D02*X18500Y132000D01*
X19500D01*
X20000Y131500D01*
Y128500D01*
X19500Y128000D02*X20000Y128500D01*
X18500Y128000D02*X19500D01*
X18000Y128500D02*X18500Y128000D01*
Y130000D02*X20000D01*
X21200Y128000D02*X21700D01*
X22900Y131500D02*X23400Y132000D01*
X24400D01*
X24900Y131500D01*
Y128500D01*
X24400Y128000D02*X24900Y128500D01*
X23400Y128000D02*X24400D01*
X22900Y128500D02*X23400Y128000D01*
Y130000D02*X24900D01*
X26100Y132000D02*Y129000D01*
X27100Y128000D01*
X28100Y129000D01*
Y132000D02*Y129000D01*
X18000Y152000D02*X19000D01*
X18500D02*Y148000D01*
X18000D02*X19000D01*
X20200Y151500D02*Y148500D01*
Y151500D02*X20700Y152000D01*
X21700D01*
X22200Y151500D01*
Y148500D01*
X21700Y148000D02*X22200Y148500D01*
X20700Y148000D02*X21700D01*
X20200Y148500D02*X20700Y148000D01*
X23400Y152000D02*X25400D01*
X25900Y151500D01*
Y150500D01*
X25400Y150000D02*X25900Y150500D01*
X23900Y150000D02*X25400D01*
X23900Y152000D02*Y148000D01*
Y150000D02*X25900Y148000D01*
X27100Y150000D02*X28600D01*
X27100Y148000D02*X29100D01*
X27100Y152000D02*Y148000D01*
Y152000D02*X29100D01*
X30300D02*Y148000D01*
Y152000D02*X32300D01*
X30300Y150000D02*X31800D01*
X18000Y142000D02*X20000D01*
X20500Y141500D01*
Y140500D01*
X20000Y140000D02*X20500Y140500D01*
X18500Y140000D02*X20000D01*
X18500Y142000D02*Y138000D01*
Y140000D02*X20500Y138000D01*
X21700Y140000D02*X23200D01*
X21700Y138000D02*X23700D01*
X21700Y142000D02*Y138000D01*
Y142000D02*X23700D01*
X26900D02*X27400Y141500D01*
X25400Y142000D02*X26900D01*
X24900Y141500D02*X25400Y142000D01*
X24900Y141500D02*Y140500D01*
X25400Y140000D01*
X26900D01*
X27400Y139500D01*
Y138500D01*
X26900Y138000D02*X27400Y138500D01*
X25400Y138000D02*X26900D01*
X24900Y138500D02*X25400Y138000D01*
X28600Y140000D02*X30100D01*
X28600Y138000D02*X30600D01*
X28600Y142000D02*Y138000D01*
Y142000D02*X30600D01*
X31800D02*X33800D01*
X32800D02*Y138000D01*
X18000Y162000D02*Y158000D01*
Y162000D02*Y161500D01*
X20500Y159000D01*
Y162000D02*Y158000D01*
X21700Y158500D02*X24700Y161500D01*
X26400Y158000D02*X27900D01*
X25900Y158500D02*X26400Y158000D01*
X25900Y161500D02*Y158500D01*
Y161500D02*X26400Y162000D01*
X27900D01*
X33543Y230500D02*X35543D01*
X34543Y231500D02*Y229500D01*
X49620Y239820D02*X52500D01*
X51060Y241260D02*Y238380D01*
X45012Y236940D02*X47892D01*
Y239820D02*Y236940D01*
Y239820D02*X47172Y239100D01*
X45732D02*X47172D01*
X45732D02*X45012Y239820D01*
Y241980D02*Y239820D01*
X45732Y242700D02*X45012Y241980D01*
X45732Y242700D02*X47172D01*
X47892Y241980D02*X47172Y242700D01*
X43284Y241260D02*Y236940D01*
Y241260D02*X41844Y242700D01*
X40404Y241260D01*
Y236940D01*
X18000Y92000D02*Y89000D01*
X19000Y88000D01*
X20000Y89000D01*
Y92000D02*Y89000D01*
X21200Y92000D02*X22200D01*
X21700D02*Y88000D01*
X21200D02*X22200D01*
X23400Y92000D02*Y88000D01*
Y92000D02*Y91500D01*
X25900Y89000D01*
Y92000D02*Y88000D01*
X20000Y102000D02*X20500Y101500D01*
X18500Y102000D02*X20000D01*
X18000Y101500D02*X18500Y102000D01*
X18000Y101500D02*Y98500D01*
X18500Y98000D01*
X20000D01*
X20500Y98500D01*
Y99500D02*Y98500D01*
X20000Y100000D02*X20500Y99500D01*
X19000Y100000D02*X20000D01*
X21700Y102000D02*Y98000D01*
Y102000D02*Y101500D01*
X24200Y99000D01*
Y102000D02*Y98000D01*
X25900Y102000D02*Y98000D01*
X27400Y102000D02*X27900Y101500D01*
Y98500D01*
X27400Y98000D02*X27900Y98500D01*
X25400Y98000D02*X27400D01*
X25400Y102000D02*X27400D01*
X20000Y112000D02*X20500Y111500D01*
X18500Y112000D02*X20000D01*
X18000Y111500D02*X18500Y112000D01*
X18000Y111500D02*Y108500D01*
X18500Y108000D01*
X20000D01*
X20500Y108500D01*
Y109500D02*Y108500D01*
X20000Y110000D02*X20500Y109500D01*
X19000Y110000D02*X20000D01*
X21700Y112000D02*Y108000D01*
Y112000D02*Y111500D01*
X24200Y109000D01*
Y112000D02*Y108000D01*
X25900Y112000D02*Y108000D01*
X27400Y112000D02*X27900Y111500D01*
Y108500D01*
X27400Y108000D02*X27900Y108500D01*
X25400Y108000D02*X27400D01*
X25400Y112000D02*X27400D01*
X185500Y52000D02*Y48000D01*
X187000Y52000D02*X187500Y51500D01*
Y48500D01*
X187000Y48000D02*X187500Y48500D01*
X185000Y48000D02*X187000D01*
X185000Y52000D02*X187000D01*
X188700Y51500D02*X189200Y52000D01*
X190200D01*
X190700Y51500D01*
Y48500D01*
X190200Y48000D02*X190700Y48500D01*
X189200Y48000D02*X190200D01*
X188700Y48500D02*X189200Y48000D01*
Y50000D02*X190700D01*
X185500Y62000D02*Y58000D01*
X187000Y62000D02*X187500Y61500D01*
Y58500D01*
X187000Y58000D02*X187500Y58500D01*
X185000Y58000D02*X187000D01*
X185000Y62000D02*X187000D01*
X188700Y60000D02*X190700Y62000D01*
X188700Y60000D02*X191200D01*
X190700Y62000D02*Y58000D01*
X185500Y42000D02*Y38000D01*
X187000Y42000D02*X187500Y41500D01*
Y38500D01*
X187000Y38000D02*X187500Y38500D01*
X185000Y38000D02*X187000D01*
X185000Y42000D02*X187000D01*
X188700Y41500D02*X189200Y42000D01*
X190700D01*
X191200Y41500D01*
Y40500D01*
X188700Y38000D02*X191200Y40500D01*
X188700Y38000D02*X191200D01*
X174000Y22000D02*X176000D01*
X176500Y21500D01*
Y20500D01*
X176000Y20000D02*X176500Y20500D01*
X174500Y20000D02*X176000D01*
X174500Y22000D02*Y18000D01*
Y20000D02*X176500Y18000D01*
X177700Y22000D02*Y21500D01*
X180200Y19000D01*
Y18000D01*
X177700Y19000D02*Y18000D01*
Y19000D02*X180200Y21500D01*
Y22000D02*Y21500D01*
X181400Y18500D02*X184400Y21500D01*
X186100Y22000D02*Y18000D01*
X187600Y22000D02*X188100Y21500D01*
Y18500D01*
X187600Y18000D02*X188100Y18500D01*
X185600Y18000D02*X187600D01*
X185600Y22000D02*X187600D01*
X189300Y18500D02*X189800Y18000D01*
X189300Y21500D02*Y18500D01*
Y21500D02*X189800Y22000D01*
X190800D01*
X191300Y21500D01*
Y18500D01*
X190800Y18000D02*X191300Y18500D01*
X189800Y18000D02*X190800D01*
X189300Y19000D02*X191300Y21000D01*
X175000Y32000D02*X177000D01*
X176000D02*Y28000D01*
X178200Y32000D02*Y31500D01*
X180700Y29000D01*
Y28000D01*
X178200Y29000D02*Y28000D01*
Y29000D02*X180700Y31500D01*
Y32000D02*Y31500D01*
X181900Y28500D02*X184900Y31500D01*
X186600Y32000D02*Y28000D01*
X188100Y32000D02*X188600Y31500D01*
Y28500D01*
X188100Y28000D02*X188600Y28500D01*
X186100Y28000D02*X188100D01*
X186100Y32000D02*X188100D01*
X190300Y28000D02*X191300D01*
X190800Y32000D02*Y28000D01*
X189800Y31000D02*X190800Y32000D01*
X140000Y27500D02*Y23500D01*
X139500Y27500D02*X141500D01*
X142000Y27000D01*
Y26000D01*
X141500Y25500D02*X142000Y26000D01*
X140000Y25500D02*X141500D01*
X143200Y27500D02*Y23500D01*
X144700Y25000D01*
X146200Y23500D01*
Y27500D02*Y23500D01*
X147400Y27500D02*X149400D01*
X149900Y27000D01*
Y26000D01*
X149400Y25500D02*X149900Y26000D01*
X147900Y25500D02*X149400D01*
X147900Y27500D02*Y23500D01*
Y25500D02*X149900Y23500D01*
X185500Y82000D02*Y78000D01*
X187000Y82000D02*X187500Y81500D01*
Y78500D01*
X187000Y78000D02*X187500Y78500D01*
X185000Y78000D02*X187000D01*
X185000Y82000D02*X187000D01*
X190200D02*X190700Y81500D01*
X189200Y82000D02*X190200D01*
X188700Y81500D02*X189200Y82000D01*
X188700Y81500D02*Y78500D01*
X189200Y78000D01*
X190200Y80000D02*X190700Y79500D01*
X188700Y80000D02*X190200D01*
X189200Y78000D02*X190200D01*
X190700Y78500D01*
Y79500D02*Y78500D01*
X185500Y72000D02*Y68000D01*
X187000Y72000D02*X187500Y71500D01*
Y68500D01*
X187000Y68000D02*X187500Y68500D01*
X185000Y68000D02*X187000D01*
X185000Y72000D02*X187000D01*
X188700D02*X190700D01*
X188700D02*Y70000D01*
X189200Y70500D01*
X190200D01*
X190700Y70000D01*
Y68500D01*
X190200Y68000D02*X190700Y68500D01*
X189200Y68000D02*X190200D01*
X188700Y68500D02*X189200Y68000D01*
X28500Y64000D02*Y60000D01*
Y61500D02*X29000Y62000D01*
X30000D01*
X30500Y61500D01*
Y60000D01*
X32200Y64000D02*Y60500D01*
X32700Y60000D01*
X31700Y62500D02*X32700D01*
X34200Y64000D02*Y60500D01*
X34700Y60000D01*
X33700Y62500D02*X34700D01*
X36200Y61500D02*Y58500D01*
X35700Y62000D02*X36200Y61500D01*
X36700Y62000D01*
X37700D01*
X38200Y61500D01*
Y60500D01*
X37700Y60000D02*X38200Y60500D01*
X36700Y60000D02*X37700D01*
X36200Y60500D02*X36700Y60000D01*
X39400Y62500D02*X39900D01*
X39400Y61500D02*X39900D01*
X41100Y60500D02*X44100Y63500D01*
X45300Y60500D02*X48300Y63500D01*
X49500Y62000D02*Y60500D01*
X50000Y60000D01*
X50500D01*
X51000Y60500D01*
Y62000D02*Y60500D01*
X51500Y60000D01*
X52000D01*
X52500Y60500D01*
Y62000D02*Y60500D01*
X53700Y62000D02*Y60500D01*
X54200Y60000D01*
X54700D01*
X55200Y60500D01*
Y62000D02*Y60500D01*
X55700Y60000D01*
X56200D01*
X56700Y60500D01*
Y62000D02*Y60500D01*
X57900Y62000D02*Y60500D01*
X58400Y60000D01*
X58900D01*
X59400Y60500D01*
Y62000D02*Y60500D01*
X59900Y60000D01*
X60400D01*
X60900Y60500D01*
Y62000D02*Y60500D01*
X62100Y60000D02*X62600D01*
X63800Y63000D02*Y62500D01*
Y61500D02*Y60000D01*
X66300Y62000D02*X66800Y61500D01*
X65300Y62000D02*X66300D01*
X64800Y61500D02*X65300Y62000D01*
X64800Y61500D02*Y60500D01*
X65300Y60000D01*
X66800Y62000D02*Y60500D01*
X67300Y60000D01*
X65300D02*X66300D01*
X66800Y60500D01*
X69000Y60000D02*X70500D01*
X71000Y60500D01*
X70500Y61000D02*X71000Y60500D01*
X69000Y61000D02*X70500D01*
X68500Y61500D02*X69000Y61000D01*
X68500Y61500D02*X69000Y62000D01*
X70500D01*
X71000Y61500D01*
X68500Y60500D02*X69000Y60000D01*
X72700Y62000D02*X74200D01*
X72200Y61500D02*X72700Y62000D01*
X72200Y61500D02*Y60500D01*
X72700Y60000D01*
X74200D01*
X76900Y62000D02*X77400Y61500D01*
X75900Y62000D02*X76900D01*
X75400Y61500D02*X75900Y62000D01*
X75400Y61500D02*Y60500D01*
X75900Y60000D01*
X77400Y62000D02*Y60500D01*
X77900Y60000D01*
X75900D02*X76900D01*
X77400Y60500D01*
X79100Y64000D02*Y60500D01*
X79600Y60000D01*
X81100D02*X82600D01*
X80600Y60500D02*X81100Y60000D01*
X80600Y61500D02*Y60500D01*
Y61500D02*X81100Y62000D01*
X82100D01*
X82600Y61500D01*
X80600Y61000D02*X82600D01*
Y61500D02*Y61000D01*
X85800Y64000D02*Y60000D01*
X85300D02*X85800Y60500D01*
X84300Y60000D02*X85300D01*
X83800Y60500D02*X84300Y60000D01*
X83800Y61500D02*Y60500D01*
Y61500D02*X84300Y62000D01*
X85300D01*
X85800Y61500D01*
X87000Y60000D02*X87500D01*
X89200Y62000D02*X90700D01*
X88700Y61500D02*X89200Y62000D01*
X88700Y61500D02*Y60500D01*
X89200Y60000D01*
X90700D01*
X91900Y61500D02*Y60500D01*
Y61500D02*X92400Y62000D01*
X93400D01*
X93900Y61500D01*
Y60500D01*
X93400Y60000D02*X93900Y60500D01*
X92400Y60000D02*X93400D01*
X91900Y60500D02*X92400Y60000D01*
X95600Y61500D02*Y60000D01*
Y61500D02*X96100Y62000D01*
X96600D01*
X97100Y61500D01*
Y60000D01*
Y61500D02*X97600Y62000D01*
X98100D01*
X98600Y61500D01*
Y60000D01*
X95100Y62000D02*X95600Y61500D01*
X28500Y52500D02*X29000Y52000D01*
X28500Y55500D02*X29000Y56000D01*
X28500Y55500D02*Y52500D01*
X30700Y52000D02*X32200D01*
X30200Y52500D02*X30700Y52000D01*
X30200Y55500D02*Y52500D01*
Y55500D02*X30700Y56000D01*
X32200D01*
X33400D02*X33900Y55500D01*
Y52500D01*
X33400Y52000D02*X33900Y52500D01*
X36900Y55500D02*X37400Y56000D01*
X38900D01*
X39400Y55500D01*
Y54500D01*
X36900Y52000D02*X39400Y54500D01*
X36900Y52000D02*X39400D01*
X40600Y52500D02*X41100Y52000D01*
X40600Y55500D02*Y52500D01*
Y55500D02*X41100Y56000D01*
X42100D01*
X42600Y55500D01*
Y52500D01*
X42100Y52000D02*X42600Y52500D01*
X41100Y52000D02*X42100D01*
X40600Y53000D02*X42600Y55000D01*
X43800Y55500D02*X44300Y56000D01*
X45800D01*
X46300Y55500D01*
Y54500D01*
X43800Y52000D02*X46300Y54500D01*
X43800Y52000D02*X46300D01*
X48000D02*X49000D01*
X48500Y56000D02*Y52000D01*
X47500Y55000D02*X48500Y56000D01*
X52500Y52000D02*X54000D01*
X52000Y52500D02*X52500Y52000D01*
X52000Y55500D02*Y52500D01*
Y55500D02*X52500Y56000D01*
X54000D01*
X55700Y52000D02*X57200D01*
X55200Y52500D02*X55700Y52000D01*
X55200Y55500D02*Y52500D01*
Y55500D02*X55700Y56000D01*
X57200D01*
X60200Y52000D02*X62200D01*
X62700Y52500D01*
Y53500D02*Y52500D01*
X62200Y54000D02*X62700Y53500D01*
X60700Y54000D02*X62200D01*
X60700Y56000D02*Y52000D01*
X60200Y56000D02*X62200D01*
X62700Y55500D01*
Y54500D01*
X62200Y54000D02*X62700Y54500D01*
X63900Y56000D02*Y55500D01*
X64900Y54500D01*
X65900Y55500D01*
Y56000D02*Y55500D01*
X64900Y54500D02*Y52000D01*
X67100Y54000D02*X69100D01*
X72300Y56000D02*X72800Y55500D01*
X70800Y56000D02*X72300D01*
X70300Y55500D02*X70800Y56000D01*
X70300Y55500D02*Y54500D01*
X70800Y54000D01*
X72300D01*
X72800Y53500D01*
Y52500D01*
X72300Y52000D02*X72800Y52500D01*
X70800Y52000D02*X72300D01*
X70300Y52500D02*X70800Y52000D01*
X74000Y55500D02*Y52000D01*
Y55500D02*X74500Y56000D01*
X76000D01*
X76500Y55500D01*
Y52000D01*
X74000Y54000D02*X76500D01*
X28500Y71000D02*X29500D01*
X29000D02*Y67000D01*
X28500D02*X29500D01*
X30700Y68500D02*Y67500D01*
Y68500D02*X31200Y69000D01*
X32200D01*
X32700Y68500D01*
Y67500D01*
X32200Y67000D02*X32700Y67500D01*
X31200Y67000D02*X32200D01*
X30700Y67500D02*X31200Y67000D01*
X33900Y69000D02*Y67500D01*
X34400Y67000D01*
X34900D01*
X35400Y67500D01*
Y69000D02*Y67500D01*
X35900Y67000D01*
X36400D01*
X36900Y67500D01*
Y69000D02*Y67500D01*
X39600Y69000D02*X40100Y68500D01*
X38600Y69000D02*X39600D01*
X38100Y68500D02*X38600Y69000D01*
X38100Y68500D02*Y67500D01*
X38600Y67000D01*
X40100Y69000D02*Y67500D01*
X40600Y67000D01*
X38600D02*X39600D01*
X40100Y67500D01*
X45600Y71000D02*X46100Y70500D01*
X44100Y71000D02*X45600D01*
X43600Y70500D02*X44100Y71000D01*
X43600Y70500D02*Y69500D01*
X44100Y69000D01*
X45600D01*
X46100Y68500D01*
Y67500D01*
X45600Y67000D02*X46100Y67500D01*
X44100Y67000D02*X45600D01*
X43600Y67500D02*X44100Y67000D01*
X47800Y69000D02*X49300D01*
X47300Y68500D02*X47800Y69000D01*
X47300Y68500D02*Y67500D01*
X47800Y67000D01*
X49300D01*
X52000Y69000D02*X52500Y68500D01*
X51000Y69000D02*X52000D01*
X50500Y68500D02*X51000Y69000D01*
X50500Y68500D02*Y67500D01*
X51000Y67000D01*
X52500Y69000D02*Y67500D01*
X53000Y67000D01*
X51000D02*X52000D01*
X52500Y67500D01*
X54200Y71000D02*Y67500D01*
X54700Y67000D01*
X56200D02*X57700D01*
X55700Y67500D02*X56200Y67000D01*
X55700Y68500D02*Y67500D01*
Y68500D02*X56200Y69000D01*
X57200D01*
X57700Y68500D01*
X55700Y68000D02*X57700D01*
Y68500D02*Y68000D01*
X60900Y71000D02*Y67000D01*
X60400D02*X60900Y67500D01*
X59400Y67000D02*X60400D01*
X58900Y67500D02*X59400Y67000D01*
X58900Y68500D02*Y67500D01*
Y68500D02*X59400Y69000D01*
X60400D01*
X60900Y68500D01*
X63900Y69000D02*X65400D01*
X63900Y67000D02*X65900D01*
X63900Y71000D02*Y67000D01*
Y71000D02*X65900D01*
X67600Y68500D02*Y67000D01*
Y68500D02*X68100Y69000D01*
X68600D01*
X69100Y68500D01*
Y67000D01*
X67100Y69000D02*X67600Y68500D01*
X71800Y69000D02*X72300Y68500D01*
X70800Y69000D02*X71800D01*
X70300Y68500D02*X70800Y69000D01*
X70300Y68500D02*Y67500D01*
X70800Y67000D01*
X71800D01*
X72300Y67500D01*
X70300Y66000D02*X70800Y65500D01*
X71800D01*
X72300Y66000D01*
Y69000D02*Y66000D01*
X73500Y70000D02*Y69500D01*
Y68500D02*Y67000D01*
X75000Y68500D02*Y67000D01*
Y68500D02*X75500Y69000D01*
X76000D01*
X76500Y68500D01*
Y67000D01*
X74500Y69000D02*X75000Y68500D01*
X78200Y67000D02*X79700D01*
X77700Y67500D02*X78200Y67000D01*
X77700Y68500D02*Y67500D01*
Y68500D02*X78200Y69000D01*
X79200D01*
X79700Y68500D01*
X77700Y68000D02*X79700D01*
Y68500D02*Y68000D01*
X81400Y67000D02*X82900D01*
X80900Y67500D02*X81400Y67000D01*
X80900Y68500D02*Y67500D01*
Y68500D02*X81400Y69000D01*
X82400D01*
X82900Y68500D01*
X80900Y68000D02*X82900D01*
Y68500D02*Y68000D01*
X84600Y68500D02*Y67000D01*
Y68500D02*X85100Y69000D01*
X86100D01*
X84100D02*X84600Y68500D01*
X87300Y70000D02*Y69500D01*
Y68500D02*Y67000D01*
X88800Y68500D02*Y67000D01*
Y68500D02*X89300Y69000D01*
X89800D01*
X90300Y68500D01*
Y67000D01*
X88300Y69000D02*X88800Y68500D01*
X93000Y69000D02*X93500Y68500D01*
X92000Y69000D02*X93000D01*
X91500Y68500D02*X92000Y69000D01*
X91500Y68500D02*Y67500D01*
X92000Y67000D01*
X93000D01*
X93500Y67500D01*
X91500Y66000D02*X92000Y65500D01*
X93000D01*
X93500Y66000D01*
Y69000D02*Y66000D01*
X28500Y77000D02*Y73500D01*
Y77000D02*X29000Y77500D01*
X30500D01*
X31000Y77000D01*
Y73500D01*
X28500Y75500D02*X31000D01*
X32200Y77500D02*X34200D01*
X34700Y77000D01*
Y76000D01*
X34200Y75500D02*X34700Y76000D01*
X32700Y75500D02*X34200D01*
X32700Y77500D02*Y73500D01*
Y75500D02*X34700Y73500D01*
X36400Y77500D02*Y73500D01*
X37900Y77500D02*X38400Y77000D01*
Y74000D01*
X37900Y73500D02*X38400Y74000D01*
X35900Y73500D02*X37900D01*
X35900Y77500D02*X37900D01*
X39600Y75500D02*X41600D01*
X44800Y77500D02*X45300Y77000D01*
X43300Y77500D02*X44800D01*
X42800Y77000D02*X43300Y77500D01*
X42800Y77000D02*Y76000D01*
X43300Y75500D01*
X44800D01*
X45300Y75000D01*
Y74000D01*
X44800Y73500D02*X45300Y74000D01*
X43300Y73500D02*X44800D01*
X42800Y74000D02*X43300Y73500D01*
X47000Y77500D02*Y73500D01*
X46500Y77500D02*X48500D01*
X49000Y77000D01*
Y76000D01*
X48500Y75500D02*X49000Y76000D01*
X47000Y75500D02*X48500D01*
X50200Y77500D02*X51200D01*
X50700D02*Y73500D01*
X50200D02*X51200D01*
X52400Y77500D02*Y73500D01*
Y77500D02*X54400D01*
X52400Y75500D02*X53900D01*
X55600Y77500D02*Y73500D01*
X57600D01*
X58800Y77000D02*Y73500D01*
Y77000D02*X59300Y77500D01*
X60800D01*
X61300Y77000D01*
Y73500D01*
X58800Y75500D02*X61300D01*
X64500Y77500D02*X65000Y77000D01*
X63000Y77500D02*X64500D01*
X62500Y77000D02*X63000Y77500D01*
X62500Y77000D02*Y76000D01*
X63000Y75500D01*
X64500D01*
X65000Y75000D01*
Y74000D01*
X64500Y73500D02*X65000Y74000D01*
X63000Y73500D02*X64500D01*
X62500Y74000D02*X63000Y73500D01*
X66200Y77500D02*Y73500D01*
X68700Y77500D02*Y73500D01*
X66200Y75500D02*X68700D01*
X71700D02*Y74500D01*
X72700Y73500D01*
X73700Y74500D01*
Y75500D02*Y74500D01*
X75400Y73500D02*X76400D01*
X75900Y77500D02*Y73500D01*
X74900Y76500D02*X75900Y77500D01*
X77600Y73500D02*X78100D01*
X79300Y74000D02*X79800Y73500D01*
X79300Y77000D02*Y74000D01*
Y77000D02*X79800Y77500D01*
X80800D01*
X81300Y77000D01*
Y74000D01*
X80800Y73500D02*X81300Y74000D01*
X79800Y73500D02*X80800D01*
X79300Y74500D02*X81300Y76500D01*
X185500Y108000D02*Y104000D01*
X187000Y108000D02*X187500Y107500D01*
Y104500D01*
X187000Y104000D02*X187500Y104500D01*
X185000Y104000D02*X187000D01*
X185000Y108000D02*X187000D01*
X188700Y104500D02*X189200Y104000D01*
X188700Y105500D02*Y104500D01*
Y105500D02*X189200Y106000D01*
X190200D01*
X190700Y105500D01*
Y104500D01*
X190200Y104000D02*X190700Y104500D01*
X189200Y104000D02*X190200D01*
X188700Y106500D02*X189200Y106000D01*
X188700Y107500D02*Y106500D01*
Y107500D02*X189200Y108000D01*
X190200D01*
X190700Y107500D01*
Y106500D01*
X190200Y106000D02*X190700Y106500D01*
X183500Y138000D02*Y134000D01*
X185000Y138000D02*X185500Y137500D01*
Y134500D01*
X185000Y134000D02*X185500Y134500D01*
X183000Y134000D02*X185000D01*
X183000Y138000D02*X185000D01*
X187200Y134000D02*X188200D01*
X187700Y138000D02*Y134000D01*
X186700Y137000D02*X187700Y138000D01*
X189900Y134000D02*X190900D01*
X190400Y138000D02*Y134000D01*
X189400Y137000D02*X190400Y138000D01*
X183500Y128000D02*Y124000D01*
X185000Y128000D02*X185500Y127500D01*
Y124500D01*
X185000Y124000D02*X185500Y124500D01*
X183000Y124000D02*X185000D01*
X183000Y128000D02*X185000D01*
X187200Y124000D02*X188200D01*
X187700Y128000D02*Y124000D01*
X186700Y127000D02*X187700Y128000D01*
X189400Y124500D02*X189900Y124000D01*
X189400Y127500D02*Y124500D01*
Y127500D02*X189900Y128000D01*
X190900D01*
X191400Y127500D01*
Y124500D01*
X190900Y124000D02*X191400Y124500D01*
X189900Y124000D02*X190900D01*
X189400Y125000D02*X191400Y127000D01*
X185500Y118000D02*Y114000D01*
X187000Y118000D02*X187500Y117500D01*
Y114500D01*
X187000Y114000D02*X187500Y114500D01*
X185000Y114000D02*X187000D01*
X185000Y118000D02*X187000D01*
X188700Y114000D02*X190700Y116000D01*
Y117500D02*Y116000D01*
X190200Y118000D02*X190700Y117500D01*
X189200Y118000D02*X190200D01*
X188700Y117500D02*X189200Y118000D01*
X188700Y117500D02*Y116500D01*
X189200Y116000D01*
X190700D01*
X185500Y92000D02*Y88000D01*
X187000Y92000D02*X187500Y91500D01*
Y88500D01*
X187000Y88000D02*X187500Y88500D01*
X185000Y88000D02*X187000D01*
X185000Y92000D02*X187000D01*
X188700Y88000D02*X191200Y90500D01*
Y92000D02*Y90500D01*
X188700Y92000D02*X191200D01*
X183500Y158000D02*Y154000D01*
X185000Y158000D02*X185500Y157500D01*
Y154500D01*
X185000Y154000D02*X185500Y154500D01*
X183000Y154000D02*X185000D01*
X183000Y158000D02*X185000D01*
X187200Y154000D02*X188200D01*
X187700Y158000D02*Y154000D01*
X186700Y157000D02*X187700Y158000D01*
X189400Y157500D02*X189900Y158000D01*
X190900D01*
X191400Y157500D01*
Y154500D01*
X190900Y154000D02*X191400Y154500D01*
X189900Y154000D02*X190900D01*
X189400Y154500D02*X189900Y154000D01*
Y156000D02*X191400D01*
X183500Y148000D02*Y144000D01*
X185000Y148000D02*X185500Y147500D01*
Y144500D01*
X185000Y144000D02*X185500Y144500D01*
X183000Y144000D02*X185000D01*
X183000Y148000D02*X185000D01*
X187200Y144000D02*X188200D01*
X187700Y148000D02*Y144000D01*
X186700Y147000D02*X187700Y148000D01*
X189400Y147500D02*X189900Y148000D01*
X191400D01*
X191900Y147500D01*
Y146500D01*
X189400Y144000D02*X191900Y146500D01*
X189400Y144000D02*X191900D01*
X184000Y168000D02*X184500Y167500D01*
X182500Y168000D02*X184000D01*
X182000Y167500D02*X182500Y168000D01*
X182000Y167500D02*Y164500D01*
X182500Y164000D01*
X184000D01*
X184500Y164500D01*
Y165500D02*Y164500D01*
X184000Y166000D02*X184500Y165500D01*
X183000Y166000D02*X184000D01*
X185700Y168000D02*Y164000D01*
Y168000D02*Y167500D01*
X188200Y165000D01*
Y168000D02*Y164000D01*
X189900Y168000D02*Y164000D01*
X191400Y168000D02*X191900Y167500D01*
Y164500D01*
X191400Y164000D02*X191900Y164500D01*
X189400Y164000D02*X191400D01*
X189400Y168000D02*X191400D01*
X180000Y177500D02*Y174000D01*
Y177500D02*X180500Y178000D01*
X182000D01*
X182500Y177500D01*
Y174000D01*
X180000Y176000D02*X182500D01*
X183700Y178000D02*X185700D01*
X186200Y177500D01*
Y176500D01*
X185700Y176000D02*X186200Y176500D01*
X184200Y176000D02*X185700D01*
X184200Y178000D02*Y174000D01*
Y176000D02*X186200Y174000D01*
X187400Y176000D02*X188900D01*
X187400Y174000D02*X189400D01*
X187400Y178000D02*Y174000D01*
Y178000D02*X189400D01*
X190600D02*Y174000D01*
Y178000D02*X192600D01*
X190600Y176000D02*X192100D01*
X185000Y198000D02*X185500Y197500D01*
X183500Y198000D02*X185000D01*
X183000Y197500D02*X183500Y198000D01*
X183000Y197500D02*Y196500D01*
X183500Y196000D01*
X185000D01*
X185500Y195500D01*
Y194500D01*
X185000Y194000D02*X185500Y194500D01*
X183500Y194000D02*X185000D01*
X183000Y194500D02*X183500Y194000D01*
X187200D02*X188700D01*
X186700Y194500D02*X187200Y194000D01*
X186700Y197500D02*Y194500D01*
Y197500D02*X187200Y198000D01*
X188700D01*
X189900D02*Y194000D01*
X191900D01*
X158000Y257000D02*Y253000D01*
X156500D02*X158500D01*
X156500D02*X156000Y253500D01*
Y254500D02*Y253500D01*
X156500Y255000D02*X156000Y254500D01*
X156500Y255000D02*X158000D01*
X153800Y253000D02*X154800D01*
X154300Y257000D02*Y253000D01*
X153800Y257000D02*X154800D01*
X152600D02*Y253000D01*
Y253500D02*Y253000D01*
Y253500D02*X150100Y256000D01*
Y257000D02*Y253000D01*
X145600Y257000D02*X146600D01*
X146100D02*Y253000D01*
X147100Y254000D02*X146100Y253000D01*
G54D43*X186000Y266300D02*Y259660D01*
X182680D02*X186000D01*
X183510Y262980D02*X186000D01*
X180688Y266300D02*Y259660D01*
X177368Y266300D02*X180688D01*
X175376D02*Y260490D01*
X174546Y259660D01*
X172056D02*X174546D01*
X172056D02*X171226Y260490D01*
Y266300D02*Y260490D01*
Y262980D02*X175376D01*
X165914Y259660D02*X165084Y260490D01*
X165914Y259660D02*X168404D01*
X169234Y260490D02*X168404Y259660D01*
X169234Y262150D02*Y260490D01*
Y262150D02*X168404Y262980D01*
X165914D02*X168404D01*
X165914D02*X165084Y263810D01*
Y265470D02*Y263810D01*
X165914Y266300D02*X165084Y265470D01*
X165914Y266300D02*X168404D01*
X169234Y265470D02*X168404Y266300D01*
X163092D02*Y259660D01*
X158942Y266300D02*Y259660D01*
Y262980D02*X163092D01*
X153132Y266300D02*Y259660D01*
X150642D02*X153962D01*
X150642D02*X149812Y260490D01*
Y262150D02*Y260490D01*
X150642Y262980D02*X149812Y262150D01*
X150642Y262980D02*X153132D01*
X144500Y259660D02*X147820D01*
X144500D02*X143670Y260490D01*
Y262150D02*Y260490D01*
X144500Y262980D02*X143670Y262150D01*
X144500Y262980D02*X146990D01*
Y266300D02*Y259660D01*
Y262980D02*X143670Y266300D01*
X141678Y265470D02*Y260490D01*
X140848Y259660D01*
X139188D02*X140848D01*
X139188D02*X138358Y260490D01*
Y265470D02*Y260490D01*
X139188Y266300D02*X138358Y265470D01*
X139188Y266300D02*X140848D01*
X141678Y265470D02*X140848Y266300D01*
X133046Y259660D02*X132216Y260490D01*
X133046Y259660D02*X135536D01*
X136366Y260490D02*X135536Y259660D01*
X136366Y265470D02*Y260490D01*
Y265470D02*X135536Y266300D01*
X133046D02*X135536D01*
X133046D02*X132216Y265470D01*
Y263810D01*
X133046Y262980D02*X132216Y263810D01*
X133046Y262980D02*X134706D01*
G54D42*X151500Y230000D02*X153500D01*
X152500Y231000D02*Y229000D01*
X171500Y242700D02*Y237660D01*
X170780Y236940D01*
X168620D02*X170780D01*
X168620D02*X167900Y237660D01*
Y242700D02*Y237660D01*
Y239820D02*X171500D01*
X163292Y242700D02*X165452D01*
X166172Y241980D02*X165452Y242700D01*
X166172Y241980D02*Y237660D01*
X165452Y236940D01*
X163292D02*X165452D01*
X158684D02*X161564D01*
X160124Y242700D02*Y236940D01*
X155516D02*X156956D01*
X156236Y242700D02*Y236940D01*
X155516Y242700D02*X156956D01*
X153788Y241260D02*Y236940D01*
Y241260D02*X152348Y242700D01*
X150908Y241260D01*
Y236940D01*
X147020Y239820D02*X149180D01*
X146300Y242700D02*X149180D01*
Y236940D01*
X146300D02*X149180D01*
X184000Y188000D02*X184500Y187500D01*
X182500Y188000D02*X184000D01*
X182000Y187500D02*X182500Y188000D01*
X182000Y187500D02*Y186500D01*
X182500Y186000D01*
X184000D01*
X184500Y185500D01*
Y184500D01*
X184000Y184000D02*X184500Y184500D01*
X182500Y184000D02*X184000D01*
X182000Y184500D02*X182500Y184000D01*
X186200Y188000D02*Y184000D01*
X187700Y188000D02*X188200Y187500D01*
Y184500D01*
X187700Y184000D02*X188200Y184500D01*
X185700Y184000D02*X187700D01*
X185700Y188000D02*X187700D01*
X189400Y187500D02*Y184000D01*
Y187500D02*X189900Y188000D01*
X191400D01*
X191900Y187500D01*
Y184000D01*
X189400Y186000D02*X191900D01*
G54D41*X5000Y165000D02*Y85000D01*
X15000D01*
Y165000D01*
X5000D01*
Y155000D02*X15000D01*
Y165000D01*
X5000Y75000D02*Y15000D01*
X15000D01*
Y75000D01*
X5000D01*
Y65000D02*X15000D01*
Y75000D01*
X67107Y233745D02*X67893D01*
X67107Y239255D02*X67893D01*
X127000Y253000D02*Y233000D01*
X97000Y253000D02*Y233000D01*
X126000D02*X127000D01*
X97000D02*X98000D01*
X97000Y253000D02*X98000D01*
X126000D02*X127000D01*
X128500Y255000D02*G75*G03X128500Y255000I0J-500D01*G01*
X43107Y227745D02*X43893D01*
X43107Y233255D02*X43893D01*
X160650Y227745D02*X161436D01*
X160650Y233255D02*X161436D01*
X113900Y189800D02*X127800D01*
X113900D02*Y178000D01*
X127800D01*
Y189800D02*Y178000D01*
X93900Y189800D02*X107800D01*
X93900D02*Y178000D01*
X107800D01*
Y189800D02*Y178000D01*
X89107Y163745D02*X89893D01*
X89107Y169255D02*X89893D01*
X73107Y163745D02*X73893D01*
X73107Y169255D02*X73893D01*
X73900Y189800D02*X87800D01*
X73900D02*Y178000D01*
X87800D01*
Y189800D02*Y178000D01*
X59607Y224255D02*X60393D01*
X59607Y218745D02*X60393D01*
X24700Y205300D02*X48300D01*
X24700Y181700D02*X48300D01*
Y205300D02*Y181700D01*
X24700Y205300D02*Y181700D01*
X26175Y202350D02*X46825D01*
X26175Y184650D02*X46825D01*
X45350Y190550D02*Y184650D01*
Y202350D02*Y196450D01*
X46825Y190550D02*X45350Y196450D01*
X36500Y200400D02*G75*G03X36500Y200400I0J-6900D01*G01*
G75*G03X36500Y186600I0J-6900D01*G01*
X205000Y95000D02*Y15000D01*
X195000Y95000D02*X205000D01*
X195000D02*Y15000D01*
X205000D01*
X195000Y25000D02*X205000D01*
X195000D02*Y15000D01*
X205000Y201000D02*Y101000D01*
X195000Y201000D02*X205000D01*
X195000D02*Y101000D01*
X205000D01*
X195000Y111000D02*X205000D01*
X195000D02*Y101000D01*
X156107Y171255D02*X156893D01*
X156107Y165745D02*X156893D01*
X133900Y189800D02*X147800D01*
X133900D02*Y178000D01*
X147800D01*
Y189800D02*Y178000D01*
X94803Y24449D02*X124803D01*
X94803D02*Y4449D01*
X124803D01*
Y24449D02*Y4449D01*
X114803Y24449D02*Y14449D01*
X124803D01*
G54D42*X185500Y206500D02*X187000D01*
Y203000D01*
X186500Y202500D02*X187000Y203000D01*
X186000Y202500D02*X186500D01*
X185500Y203000D02*X186000Y202500D01*
X188200Y206000D02*X188700Y206500D01*
X190200D01*
X190700Y206000D01*
Y205000D01*
X188200Y202500D02*X190700Y205000D01*
X188200Y202500D02*X190700D01*
X8000Y172000D02*X9500D01*
Y168500D01*
X9000Y168000D02*X9500Y168500D01*
X8500Y168000D02*X9000D01*
X8000Y168500D02*X8500Y168000D01*
X11200D02*X12200D01*
X11700Y172000D02*Y168000D01*
X10700Y171000D02*X11700Y172000D01*
X71393Y157650D02*X72893D01*
X70893Y158150D02*X71393Y157650D01*
X70893Y161150D02*Y158150D01*
Y161150D02*X71393Y161650D01*
X72893D01*
X74093Y161150D02*X74593Y161650D01*
X76093D01*
X76593Y161150D01*
Y160150D01*
X74093Y157650D02*X76593Y160150D01*
X74093Y157650D02*X76593D01*
X67500Y180000D02*Y176500D01*
X68000Y176000D01*
X69000D01*
X69500Y176500D01*
Y180000D02*Y176500D01*
X71200Y176000D02*X72200D01*
X71700Y180000D02*Y176000D01*
X70700Y179000D02*X71700Y180000D01*
X33500Y176500D02*X34000Y176000D01*
X32000Y176500D02*X33500D01*
X31500Y176000D02*X32000Y176500D01*
X31500Y176000D02*Y175000D01*
X32000Y174500D01*
X33500D01*
X34000Y174000D01*
Y173000D01*
X33500Y172500D02*X34000Y173000D01*
X32000Y172500D02*X33500D01*
X31500Y173000D02*X32000Y172500D01*
X35200Y176500D02*Y172500D01*
X36700Y174000D01*
X38200Y172500D01*
Y176500D02*Y172500D01*
X39900D02*X40900D01*
X40400Y176500D02*Y172500D01*
X39400Y175500D02*X40400Y176500D01*
X75307Y234693D02*X76807D01*
X74807Y235193D02*X75307Y234693D01*
X74807Y238193D02*Y235193D01*
Y238193D02*X75307Y238693D01*
X76807D01*
X78507Y234693D02*X79507D01*
X79007Y238693D02*Y234693D01*
X78007Y237693D02*X79007Y238693D01*
X76000Y248500D02*X77500D01*
Y245000D01*
X77000Y244500D02*X77500Y245000D01*
X76500Y244500D02*X77000D01*
X76000Y245000D02*X76500Y244500D01*
X78700Y248500D02*X80700D01*
X78700D02*Y246500D01*
X79200Y247000D01*
X80200D01*
X80700Y246500D01*
Y245000D01*
X80200Y244500D02*X80700Y245000D01*
X79200Y244500D02*X80200D01*
X78700Y245000D02*X79200Y244500D01*
X57436Y216650D02*X59436D01*
X59936Y216150D01*
Y215150D01*
X59436Y214650D02*X59936Y215150D01*
X57936Y214650D02*X59436D01*
X57936Y216650D02*Y212650D01*
Y214650D02*X59936Y212650D01*
X61636D02*X62636D01*
X62136Y216650D02*Y212650D01*
X61136Y215650D02*X62136Y216650D01*
X41350Y225150D02*Y221150D01*
X42850Y225150D02*X43350Y224650D01*
Y221650D01*
X42850Y221150D02*X43350Y221650D01*
X40850Y221150D02*X42850D01*
X40850Y225150D02*X42850D01*
X45050Y221150D02*X46050D01*
X45550Y225150D02*Y221150D01*
X44550Y224150D02*X45550Y225150D01*
X158264D02*Y221150D01*
X159764Y225150D02*X160264Y224650D01*
Y221650D01*
X159764Y221150D02*X160264Y221650D01*
X157764Y221150D02*X159764D01*
X157764Y225150D02*X159764D01*
X161464Y224650D02*X161964Y225150D01*
X163464D01*
X163964Y224650D01*
Y223650D01*
X161464Y221150D02*X163964Y223650D01*
X161464Y221150D02*X163964D01*
X100000Y224000D02*X101500D01*
Y220500D01*
X101000Y220000D02*X101500Y220500D01*
X100500Y220000D02*X101000D01*
X100000Y220500D02*X100500Y220000D01*
X102700Y222000D02*X104700Y224000D01*
X102700Y222000D02*X105200D01*
X104700Y224000D02*Y220000D01*
X87307Y157150D02*X88807D01*
X86807Y157650D02*X87307Y157150D01*
X86807Y160650D02*Y157650D01*
Y160650D02*X87307Y161150D01*
X88807D01*
X90007Y160650D02*X90507Y161150D01*
X91507D01*
X92007Y160650D01*
Y157650D01*
X91507Y157150D02*X92007Y157650D01*
X90507Y157150D02*X91507D01*
X90007Y157650D02*X90507Y157150D01*
Y159150D02*X92007D01*
X121300Y175900D02*Y172400D01*
X121800Y171900D01*
X122800D01*
X123300Y172400D01*
Y175900D02*Y172400D01*
X124500Y173900D02*X126500Y175900D01*
X124500Y173900D02*X127000D01*
X126500Y175900D02*Y171900D01*
X153307Y163150D02*X155307D01*
X155807Y162650D01*
Y161650D01*
X155307Y161150D02*X155807Y161650D01*
X153807Y161150D02*X155307D01*
X153807Y163150D02*Y159150D01*
Y161150D02*X155807Y159150D01*
X157007Y162650D02*X157507Y163150D01*
X159007D01*
X159507Y162650D01*
Y161650D01*
X157007Y159150D02*X159507Y161650D01*
X157007Y159150D02*X159507D01*
X101300Y175900D02*Y172400D01*
X101800Y171900D01*
X102800D01*
X103300Y172400D01*
Y175900D02*Y172400D01*
X104500Y175400D02*X105000Y175900D01*
X106000D01*
X106500Y175400D01*
Y172400D01*
X106000Y171900D02*X106500Y172400D01*
X105000Y171900D02*X106000D01*
X104500Y172400D02*X105000Y171900D01*
Y173900D02*X106500D01*
X141800Y176000D02*Y172500D01*
X142300Y172000D01*
X143300D01*
X143800Y172500D01*
Y176000D02*Y172500D01*
X145000Y175500D02*X145500Y176000D01*
X147000D01*
X147500Y175500D01*
Y174500D01*
X145000Y172000D02*X147500Y174500D01*
X145000Y172000D02*X147500D01*
X87697Y16551D02*X89197D01*
Y13051D01*
X88697Y12551D02*X89197Y13051D01*
X88197Y12551D02*X88697D01*
X87697Y13051D02*X88197Y12551D01*
X90397Y16051D02*X90897Y16551D01*
X91897D01*
X92397Y16051D01*
Y13051D01*
X91897Y12551D02*X92397Y13051D01*
X90897Y12551D02*X91897D01*
X90397Y13051D02*X90897Y12551D01*
Y14551D02*X92397D01*
M02*
