G04 start of page 2 for group 0 idx 0 *
G04 Title: (unknown), component *
G04 Creator: pcb 4.0.2 *
G04 CreationDate: Thu Oct 28 20:11:09 2021 UTC *
G04 For: ndholmes *
G04 Format: Gerber/RS-274X *
G04 PCB-Dimensions (mil): 2100.00 2700.00 *
G04 PCB-Coordinate-Origin: lower left *
%MOIN*%
%FSLAX25Y25*%
%LNTOP*%
%ADD19C,0.1285*%
%ADD18C,0.0380*%
%ADD17C,0.0120*%
%ADD16C,0.0240*%
%ADD15C,0.0600*%
%ADD14C,0.1500*%
%ADD13C,0.0660*%
%ADD12C,0.0250*%
%ADD11C,0.0001*%
G54D11*G36*
X91000Y261500D02*X105000D01*
Y224500D01*
X91000D01*
Y261500D01*
G37*
G36*
X42000Y268500D02*X81000D01*
Y260500D01*
X42000D01*
Y268500D01*
G37*
G36*
X14029Y207500D02*X60500D01*
Y194500D01*
X11000D01*
Y206552D01*
X11334Y206579D01*
X12635Y206891D01*
X13871Y207403D01*
X14029Y207500D01*
G37*
G36*
X11000Y192500D02*X60500D01*
Y179500D01*
X11000D01*
Y192500D01*
G37*
G54D12*X76800Y157800D02*X69000Y150000D01*
X10000D01*
Y130000D02*X74500D01*
X10000Y120000D02*X5000D01*
X3500Y121500D01*
Y163500D01*
X6500Y166500D01*
X58500D01*
X63500Y171500D01*
X63543Y171543D02*X60500Y168500D01*
X109803Y19449D02*Y160697D01*
X114750Y12250D02*Y160750D01*
X119500Y157500D02*Y145500D01*
Y154500D02*Y158500D01*
X122500Y161500D01*
X119500Y53000D02*Y152500D01*
X105000Y41500D02*Y52500D01*
Y46500D02*Y156500D01*
X100750Y176250D02*X107000Y170000D01*
X109803Y167197D02*X106000Y171000D01*
X105000Y154500D02*Y165500D01*
X103500Y167000D01*
X114750Y160750D02*X120000Y166000D01*
X118750Y164750D01*
X109803Y158000D02*Y167197D01*
X121000Y173000D02*X119000Y171000D01*
X200000Y50000D02*X122500D01*
Y161500D02*X146000D01*
X152500Y168000D01*
X157500Y179500D02*X153000Y175000D01*
X164586Y173043D02*X160043Y168500D01*
X109803Y9449D02*X111949D01*
X109000Y4000D02*X125000D01*
X127000Y6000D01*
Y17500D01*
X125000Y19500D01*
X119854D01*
X111949Y9449D02*X114750Y12250D01*
X109500Y4000D02*X94000D01*
X91000Y7000D01*
Y26000D01*
X94500Y29500D01*
X101000D01*
X104500Y33000D01*
X105000Y33500D02*X101000Y29500D01*
X105000Y43500D02*Y33500D01*
X119854Y19500D02*X119803Y19449D01*
X122500Y50000D02*X119500Y53000D01*
X76800Y180000D02*Y157800D01*
X69957Y166500D02*Y172457D01*
X70000Y172500D01*
X74500Y130000D02*X93000Y148500D01*
Y171000D01*
X97000Y175000D01*
X86000Y171500D02*Y166543D01*
X85957Y166500D01*
X81043Y172543D02*X84957D01*
X86000Y171500D01*
X85000Y180000D02*X89500D01*
X90250Y179250D01*
X112000Y221000D02*Y234500D01*
X117000Y219000D02*Y242000D01*
X112000Y247000D01*
X122000Y217000D02*Y234260D01*
Y251740D02*X125760D01*
X128000Y249500D01*
Y217000D01*
X133500Y211500D01*
X90500Y199500D02*X112000Y221000D01*
X96800Y198800D02*X117000Y219000D01*
X116800Y187800D02*Y211800D01*
X122000Y217000D01*
X105000Y187800D02*X109200D01*
X110500Y186500D01*
X76500Y184000D02*Y187500D01*
X76800Y187800D01*
X63543Y221500D02*Y171543D01*
X125000Y192000D02*Y188000D01*
Y187800D02*X129200D01*
X130500Y186500D01*
X136800Y187800D02*Y208200D01*
X137000Y175000D02*Y179800D01*
X136800Y180000D01*
X141000Y182500D02*Y168000D01*
X139000Y166000D01*
X136800Y208200D02*X130750Y214250D01*
X145000Y192000D02*Y188000D01*
Y183900D02*X142400D01*
X141000Y182500D01*
X145000Y187800D02*X149200D01*
X157500Y230500D02*Y179500D01*
X164586Y230500D02*Y173043D01*
X149200Y187800D02*X150500Y186500D01*
Y181500D01*
X149000Y180000D01*
X145000D01*
X130500Y186500D02*Y181500D01*
X129000Y180000D01*
X125000D01*
Y183900D02*X122400D01*
X121000Y182500D01*
X139000Y166000D02*X120000D01*
X121000Y182500D02*Y173000D01*
X105000Y192000D02*Y188000D01*
X90500Y186000D02*Y199500D01*
X96800Y187800D02*Y198800D01*
X105000Y183900D02*X101400D01*
X100750Y183250D01*
X85000Y192000D02*Y188000D01*
Y184000D02*X88500D01*
X90500Y186000D01*
X117000Y175000D02*Y179800D01*
X116800Y180000D01*
X110500Y186500D02*Y181500D01*
X109000Y180000D01*
X105000D01*
X97000Y175000D02*Y179800D01*
X96800Y180000D01*
X89500D02*X91000Y178500D01*
Y175000D01*
X100750Y183250D02*Y176250D01*
X67406Y248000D02*X93000D01*
X71043Y236500D02*Y247957D01*
X71000Y248000D01*
X63469D02*Y236989D01*
X59531Y249500D02*Y243531D01*
X56000Y240000D01*
X47043Y230500D02*X53000D01*
X56500Y221500D02*X42000D01*
X40000Y223500D01*
Y230457D01*
X39957Y230500D01*
X56000Y240000D02*X30500D01*
X28000Y237500D01*
Y202400D01*
X63469Y236969D02*Y221617D01*
X63543Y221543D01*
G54D13*X200000Y20000D03*
Y30000D03*
Y40000D03*
Y50000D03*
Y60000D03*
Y70000D03*
G54D14*X140000Y10000D03*
G54D15*X119803Y9449D03*
X109803D03*
X99803D03*
G54D11*G36*
X116803Y22449D02*Y16449D01*
X122803D01*
Y22449D01*
X116803D01*
G37*
G54D15*X109803Y19449D03*
X99803D03*
G54D13*X10000Y130000D03*
Y120000D03*
Y110000D03*
Y100000D03*
Y160000D03*
Y150000D03*
Y140000D03*
G54D14*Y215000D03*
G54D13*Y90000D03*
Y70000D03*
Y60000D03*
Y50000D03*
Y40000D03*
Y30000D03*
Y20000D03*
G54D14*X30000Y10000D03*
G54D13*X200000Y80000D03*
Y90000D03*
Y106000D03*
Y116000D03*
Y126000D03*
Y136000D03*
Y146000D03*
Y156000D03*
Y166000D03*
Y176000D03*
Y186000D03*
Y196000D03*
G54D14*Y210000D03*
G54D11*G36*
X95602Y169452D02*X90484D01*
Y163548D01*
X95602D01*
Y169452D01*
G37*
G36*
X88516D02*X83398D01*
Y163548D01*
X88516D01*
Y169452D01*
G37*
G36*
X79602D02*X74484D01*
Y163548D01*
X79602D01*
Y169452D01*
G37*
G36*
X72516D02*X67398D01*
Y163548D01*
X72516D01*
Y169452D01*
G37*
G36*
X155516Y171452D02*X150398D01*
Y165548D01*
X155516D01*
Y171452D01*
G37*
G36*
X162602D02*X157484D01*
Y165548D01*
X162602D01*
Y171452D01*
G37*
G36*
X114800Y189000D02*Y186600D01*
X118800D01*
Y189000D01*
X114800D01*
G37*
G36*
X134800D02*Y186600D01*
X138800D01*
Y189000D01*
X134800D01*
G37*
G36*
X143000D02*Y186600D01*
X147000D01*
Y189000D01*
X143000D01*
G37*
G36*
X114800Y181200D02*Y178800D01*
X118800D01*
Y181200D01*
X114800D01*
G37*
G36*
X134800D02*Y178800D01*
X138800D01*
Y181200D01*
X134800D01*
G37*
G36*
X143000D02*Y178800D01*
X147000D01*
Y181200D01*
X143000D01*
G37*
G36*
Y185100D02*Y182700D01*
X147000D01*
Y185100D01*
X143000D01*
G37*
G36*
X123000Y181200D02*Y178800D01*
X127000D01*
Y181200D01*
X123000D01*
G37*
G36*
Y185100D02*Y182700D01*
X127000D01*
Y185100D01*
X123000D01*
G37*
G36*
Y189000D02*Y186600D01*
X127000D01*
Y189000D01*
X123000D01*
G37*
G36*
X42516Y233452D02*X37398D01*
Y227548D01*
X42516D01*
Y233452D01*
G37*
G36*
X167145D02*X162027D01*
Y227548D01*
X167145D01*
Y233452D01*
G37*
G36*
X160059D02*X154941D01*
Y227548D01*
X160059D01*
Y233452D01*
G37*
G36*
X124500Y258984D02*X119500D01*
Y244496D01*
X124500D01*
Y258984D01*
G37*
G36*
X114500D02*X109500D01*
Y244496D01*
X114500D01*
Y258984D01*
G37*
G36*
X104500D02*X99500D01*
Y244496D01*
X104500D01*
Y258984D01*
G37*
G36*
Y241504D02*X99500D01*
Y227016D01*
X104500D01*
Y241504D01*
G37*
G36*
X114500D02*X109500D01*
Y227016D01*
X114500D01*
Y241504D01*
G37*
G36*
X124500D02*X119500D01*
Y227016D01*
X124500D01*
Y241504D01*
G37*
G36*
X73602Y239452D02*X68484D01*
Y233548D01*
X73602D01*
Y239452D01*
G37*
G36*
X66516D02*X61398D01*
Y233548D01*
X66516D01*
Y239452D01*
G37*
G36*
X68587Y252551D02*X66225D01*
Y246449D01*
X68587D01*
Y252551D01*
G37*
G36*
X64650D02*X62288D01*
Y246449D01*
X64650D01*
Y252551D01*
G37*
G36*
X60712D02*X58350D01*
Y246449D01*
X60712D01*
Y252551D01*
G37*
G36*
X56775D02*X54413D01*
Y246449D01*
X56775D01*
Y252551D01*
G37*
G36*
X74886Y268299D02*X70162D01*
Y261213D01*
X74886D01*
Y268299D01*
G37*
G36*
X52838D02*X48114D01*
Y261213D01*
X52838D01*
Y268299D01*
G37*
G36*
X49602Y233452D02*X44484D01*
Y227548D01*
X49602D01*
Y233452D01*
G37*
G36*
X59016Y224452D02*X53898D01*
Y218548D01*
X59016D01*
Y224452D01*
G37*
G36*
X66102D02*X60984D01*
Y218548D01*
X66102D01*
Y224452D01*
G37*
G36*
X50300Y205150D02*Y199650D01*
X58600D01*
Y205150D01*
X50300D01*
G37*
G36*
X94800Y189000D02*Y186600D01*
X98800D01*
Y189000D01*
X94800D01*
G37*
G36*
X103000D02*Y186600D01*
X107000D01*
Y189000D01*
X103000D01*
G37*
G36*
X74800D02*Y186600D01*
X78800D01*
Y189000D01*
X74800D01*
G37*
G36*
X83000D02*Y186600D01*
X87000D01*
Y189000D01*
X83000D01*
G37*
G36*
X94800Y181200D02*Y178800D01*
X98800D01*
Y181200D01*
X94800D01*
G37*
G36*
X103000D02*Y178800D01*
X107000D01*
Y181200D01*
X103000D01*
G37*
G36*
Y185100D02*Y182700D01*
X107000D01*
Y185100D01*
X103000D01*
G37*
G36*
X83000Y181200D02*Y178800D01*
X87000D01*
Y181200D01*
X83000D01*
G37*
G36*
Y185100D02*Y182700D01*
X87000D01*
Y185100D01*
X83000D01*
G37*
G36*
X74800Y181200D02*Y178800D01*
X78800D01*
Y181200D01*
X74800D01*
G37*
G36*
X50300Y187350D02*Y181850D01*
X58600D01*
Y187350D01*
X50300D01*
G37*
G36*
X14400D02*Y181850D01*
X22700D01*
Y187350D01*
X14400D01*
G37*
G36*
Y205150D02*Y199650D01*
X22700D01*
Y205150D01*
X14400D01*
G37*
G54D16*X94000Y258500D03*
Y253000D03*
Y227500D03*
Y233000D03*
X53000Y230500D03*
X105000Y192000D03*
X125000D03*
X145000D03*
X85000D03*
X70000Y172500D03*
X81043Y172543D03*
X76500Y184000D03*
X27000Y184500D03*
X46000D03*
X97000Y175000D03*
X91000D03*
X103500Y167000D03*
X117000Y175000D03*
X119000Y171000D03*
X122500Y161500D03*
X137000Y175000D03*
X153000D03*
G54D17*G54D18*G54D19*G54D18*G54D19*G54D18*G54D19*G54D18*G54D19*M02*
