M48
INCH
T32C0.012
T31C0.129
T30C0.038
%
T32
X002700Y018450
X004600Y018450
X005300Y023050
X007000Y017250
X007650Y018400
X008104Y017254
X008500Y019200
X009100Y017500
X009400Y025850
X009400Y025300
X009400Y023300
X009400Y022750
X009700Y017500
X010350Y016700
X010500Y019200
X011700Y017500
X011900Y017100
X012250Y016150
X012500Y019200
X013700Y017500
X014500Y019200
X015300Y017500
T30
X001000Y016000
X001000Y015000
X001000Y014000
X001000Y013000
X001000Y012000
X001000Y011000
X001000Y010000
X001000Y009000
X001000Y007000
X001000Y006000
X001000Y005000
X001000Y004000
X001000Y003000
X001000Y002000
X009980Y001945
X009980Y000945
X010980Y001945
X010980Y000945
X011980Y001945
X011980Y000945
X020000Y019600
X020000Y018600
X020000Y017600
X020000Y016600
X020000Y015600
X020000Y014600
X020000Y013600
X020000Y012600
X020000Y011600
X020000Y010600
X020000Y009000
X020000Y008000
X020000Y007000
X020000Y006000
X020000Y005000
X020000Y004000
X020000Y003000
X020000Y002000
T31
X001000Y021500
X003000Y001000
X014000Y001000
X020000Y021000
M30
