G04 start of page 10 for group -4015 idx -4015 *
G04 Title: (unknown), toppaste *
G04 Creator: pcb 4.0.2 *
G04 CreationDate: Thu Oct 28 20:11:09 2021 UTC *
G04 For: ndholmes *
G04 Format: Gerber/RS-274X *
G04 PCB-Dimensions (mil): 2100.00 2700.00 *
G04 PCB-Coordinate-Origin: lower left *
%MOIN*%
%FSLAX25Y25*%
%LNTOPPASTE*%
%ADD44C,0.0001*%
G54D44*G36*
X95602Y169452D02*X90484D01*
Y163548D01*
X95602D01*
Y169452D01*
G37*
G36*
X88516D02*X83398D01*
Y163548D01*
X88516D01*
Y169452D01*
G37*
G36*
X79602D02*X74484D01*
Y163548D01*
X79602D01*
Y169452D01*
G37*
G36*
X72516D02*X67398D01*
Y163548D01*
X72516D01*
Y169452D01*
G37*
G36*
X73602Y239452D02*X68484D01*
Y233548D01*
X73602D01*
Y239452D01*
G37*
G36*
X66516D02*X61398D01*
Y233548D01*
X66516D01*
Y239452D01*
G37*
G36*
X49602Y233452D02*X44484D01*
Y227548D01*
X49602D01*
Y233452D01*
G37*
G36*
X42516D02*X37398D01*
Y227548D01*
X42516D01*
Y233452D01*
G37*
G36*
X114800Y189000D02*Y186600D01*
X118800D01*
Y189000D01*
X114800D01*
G37*
G36*
Y181200D02*Y178800D01*
X118800D01*
Y181200D01*
X114800D01*
G37*
G36*
X123000D02*Y178800D01*
X127000D01*
Y181200D01*
X123000D01*
G37*
G36*
Y185100D02*Y182700D01*
X127000D01*
Y185100D01*
X123000D01*
G37*
G36*
Y189000D02*Y186600D01*
X127000D01*
Y189000D01*
X123000D01*
G37*
G36*
X155516Y171452D02*X150398D01*
Y165548D01*
X155516D01*
Y171452D01*
G37*
G36*
X162602D02*X157484D01*
Y165548D01*
X162602D01*
Y171452D01*
G37*
G36*
X167145Y233452D02*X162027D01*
Y227548D01*
X167145D01*
Y233452D01*
G37*
G36*
X160059D02*X154941D01*
Y227548D01*
X160059D01*
Y233452D01*
G37*
G36*
X68587Y252551D02*X66225D01*
Y246449D01*
X68587D01*
Y252551D01*
G37*
G36*
X64650D02*X62288D01*
Y246449D01*
X64650D01*
Y252551D01*
G37*
G36*
X60712D02*X58350D01*
Y246449D01*
X60712D01*
Y252551D01*
G37*
G36*
X56775D02*X54413D01*
Y246449D01*
X56775D01*
Y252551D01*
G37*
G36*
X74886Y268299D02*X70162D01*
Y261213D01*
X74886D01*
Y268299D01*
G37*
G36*
X52838D02*X48114D01*
Y261213D01*
X52838D01*
Y268299D01*
G37*
G36*
X94800Y189000D02*Y186600D01*
X98800D01*
Y189000D01*
X94800D01*
G37*
G36*
Y181200D02*Y178800D01*
X98800D01*
Y181200D01*
X94800D01*
G37*
G36*
X103000D02*Y178800D01*
X107000D01*
Y181200D01*
X103000D01*
G37*
G36*
Y185100D02*Y182700D01*
X107000D01*
Y185100D01*
X103000D01*
G37*
G36*
Y189000D02*Y186600D01*
X107000D01*
Y189000D01*
X103000D01*
G37*
G36*
X134800D02*Y186600D01*
X138800D01*
Y189000D01*
X134800D01*
G37*
G36*
Y181200D02*Y178800D01*
X138800D01*
Y181200D01*
X134800D01*
G37*
G36*
X143000D02*Y178800D01*
X147000D01*
Y181200D01*
X143000D01*
G37*
G36*
Y185100D02*Y182700D01*
X147000D01*
Y185100D01*
X143000D01*
G37*
G36*
Y189000D02*Y186600D01*
X147000D01*
Y189000D01*
X143000D01*
G37*
G36*
X124500Y258984D02*X119500D01*
Y244496D01*
X124500D01*
Y258984D01*
G37*
G36*
X114500D02*X109500D01*
Y244496D01*
X114500D01*
Y258984D01*
G37*
G36*
X104500D02*X99500D01*
Y244496D01*
X104500D01*
Y258984D01*
G37*
G36*
Y241504D02*X99500D01*
Y227016D01*
X104500D01*
Y241504D01*
G37*
G36*
X114500D02*X109500D01*
Y227016D01*
X114500D01*
Y241504D01*
G37*
G36*
X124500D02*X119500D01*
Y227016D01*
X124500D01*
Y241504D01*
G37*
G36*
X74800Y189000D02*Y186600D01*
X78800D01*
Y189000D01*
X74800D01*
G37*
G36*
Y181200D02*Y178800D01*
X78800D01*
Y181200D01*
X74800D01*
G37*
G36*
X83000D02*Y178800D01*
X87000D01*
Y181200D01*
X83000D01*
G37*
G36*
Y185100D02*Y182700D01*
X87000D01*
Y185100D01*
X83000D01*
G37*
G36*
Y189000D02*Y186600D01*
X87000D01*
Y189000D01*
X83000D01*
G37*
G36*
X59016Y224452D02*X53898D01*
Y218548D01*
X59016D01*
Y224452D01*
G37*
G36*
X66102D02*X60984D01*
Y218548D01*
X66102D01*
Y224452D01*
G37*
G36*
X50300Y187350D02*Y181850D01*
X58600D01*
Y187350D01*
X50300D01*
G37*
G36*
X14400D02*Y181850D01*
X22700D01*
Y187350D01*
X14400D01*
G37*
G36*
X50300Y205150D02*Y199650D01*
X58600D01*
Y205150D01*
X50300D01*
G37*
G36*
X14400D02*Y199650D01*
X22700D01*
Y205150D01*
X14400D01*
G37*
M02*
